<svg xmlns="http://www.w3.org/2000/svg" width="26" height="26" viewBox="0 0 26 26" fill="none">
<path d="M11.375 21.9375C11.375 22.153 11.2894 22.3597 11.137 22.512C10.9847 22.6644 10.778 22.75 10.5625 22.75H4.875C4.44402 22.75 4.0307 22.5788 3.72595 22.274C3.4212 21.9693 3.25 21.556 3.25 21.125V4.875C3.25 4.44402 3.4212 4.0307 3.72595 3.72595C4.0307 3.4212 4.44402 3.25 4.875 3.25H10.5625C10.778 3.25 10.9847 3.3356 11.137 3.48798C11.2894 3.64035 11.375 3.84701 11.375 4.0625C11.375 4.27799 11.2894 4.48465 11.137 4.63702C10.9847 4.7894 10.778 4.875 10.5625 4.875H4.875V21.125H10.5625C10.778 21.125 10.9847 21.2106 11.137 21.363C11.2894 21.5153 11.375 21.722 11.375 21.9375ZM22.5123 12.4252L18.4498 8.36266C18.2974 8.2102 18.0906 8.12455 17.875 8.12455C17.6594 8.12455 17.4526 8.2102 17.3002 8.36266C17.1477 8.51511 17.062 8.72189 17.062 8.9375C17.062 9.15311 17.1477 9.35989 17.3002 9.51234L19.9763 12.1875H10.5625C10.347 12.1875 10.1403 12.2731 9.98798 12.4255C9.8356 12.5778 9.75 12.7845 9.75 13C9.75 13.2155 9.8356 13.4222 9.98798 13.5745C10.1403 13.7269 10.347 13.8125 10.5625 13.8125H19.9763L17.3002 16.4877C17.1477 16.6401 17.062 16.8469 17.062 17.0625C17.062 17.2781 17.1477 17.4849 17.3002 17.6373C17.4526 17.7898 17.6594 17.8755 17.875 17.8755C18.0906 17.8755 18.2974 17.7898 18.4498 17.6373L22.5123 13.5748C22.5879 13.4994 22.6478 13.4098 22.6887 13.3111C22.7296 13.2125 22.7506 13.1068 22.7506 13C22.7506 12.8932 22.7296 12.7875 22.6887 12.6889C22.6478 12.5902 22.5879 12.5006 22.5123 12.4252Z" fill="white"/>
</svg>