<svg xmlns="http://www.w3.org/2000/svg" width="12" height="12" viewBox="0 0 32 32" fill="none">
  <!-- svg 이미지 색상변경은 path태그 안에 있는 'fill'에서 변경 -->
  <path d="M26.9238 20.3826C26.8481 20.5653 26.72 20.7215 26.5555 20.8314C26.3911 20.9413 26.1978 21 26 21.0001H6C5.80211 21.0002 5.60861 20.9416 5.44402 20.8318C5.27943 20.7219 5.15113 20.5657 5.07538 20.3828C4.99963 20.2 4.97982 19.9988 5.01847 19.8047C5.05712 19.6107 5.15249 19.4324 5.2925 19.2926L15.2925 9.29255C15.3854 9.19958 15.4957 9.12582 15.6171 9.07549C15.7385 9.02517 15.8686 8.99927 16 8.99927C16.1314 8.99927 16.2615 9.02517 16.3829 9.07549C16.5043 9.12582 16.6146 9.19958 16.7075 9.29255L26.7075 19.2926C26.8473 19.4325 26.9425 19.6107 26.981 19.8048C27.0195 19.9988 26.9995 20.1999 26.9238 20.3826Z" fill="#fff"/>
</svg>