<svg xmlns="http://www.w3.org/2000/svg" width="17" height="17" viewBox="0 0 17 17" fill="none">
<path d="M15.9422 3.55782L13.4422 1.05782C13.3841 0.999706 13.3152 0.953606 13.2393 0.922153C13.1635 0.890701 13.0821 0.874512 13 0.874512C12.9179 0.874512 12.8365 0.890701 12.7607 0.922153C12.6848 0.953606 12.6159 0.999706 12.5578 1.05782L5.05781 8.55782C4.99979 8.6159 4.95378 8.68485 4.92242 8.76072C4.89105 8.8366 4.87494 8.9179 4.875 9V11.5C4.875 11.6658 4.94085 11.8247 5.05806 11.9419C5.17527 12.0592 5.33424 12.125 5.5 12.125H8C8.0821 12.1251 8.16341 12.109 8.23928 12.0776C8.31515 12.0462 8.3841 12.0002 8.44219 11.9422L15.9422 4.44219C16.0003 4.38415 16.0464 4.31522 16.0779 4.23934C16.1093 4.16347 16.1255 4.08214 16.1255 4C16.1255 3.91787 16.1093 3.83654 16.0779 3.76067C16.0464 3.68479 16.0003 3.61586 15.9422 3.55782ZM7.74141 10.875H6.125V9.2586L11.125 4.2586L12.7414 5.875L7.74141 10.875ZM13.625 4.99141L12.0086 3.375L13 2.3836L14.6164 4L13.625 4.99141ZM15.5 8.375V15.25C15.5 15.5815 15.3683 15.8995 15.1339 16.1339C14.8995 16.3683 14.5815 16.5 14.25 16.5H1.75C1.41848 16.5 1.10054 16.3683 0.866116 16.1339C0.631696 15.8995 0.5 15.5815 0.5 15.25V2.75C0.5 2.41848 0.631696 2.10054 0.866116 1.86612C1.10054 1.6317 1.41848 1.5 1.75 1.5H8.625C8.79076 1.5 8.94973 1.56585 9.06694 1.68306C9.18415 1.80027 9.25 1.95924 9.25 2.125C9.25 2.29076 9.18415 2.44973 9.06694 2.56695C8.94973 2.68416 8.79076 2.75 8.625 2.75H1.75V15.25H14.25V8.375C14.25 8.20924 14.3158 8.05027 14.4331 7.93306C14.5503 7.81585 14.7092 7.75 14.875 7.75C15.0408 7.75 15.1997 7.81585 15.3169 7.93306C15.4342 8.05027 15.5 8.20924 15.5 8.375Z" fill="#343330"/>
</svg>