<svg xmlns="http://www.w3.org/2000/svg" width="39" height="39" viewBox="0 0 39 39" fill="none">
<path d="M36.5625 8.53134V15.8438C36.5625 16.1671 36.4341 16.4771 36.2055 16.7056C35.977 16.9342 35.667 17.0626 35.3438 17.0626H28.0313C27.708 17.0626 27.398 16.9342 27.1695 16.7056C26.9409 16.4771 26.8125 16.1671 26.8125 15.8438C26.8125 15.5206 26.9409 15.2106 27.1695 14.9821C27.398 14.7535 27.708 14.6251 28.0313 14.6251H32.2055L28.1547 10.914L28.1166 10.8774C26.4226 9.18412 24.2673 8.02748 21.9198 7.552C19.5723 7.07652 17.1367 7.30328 14.9173 8.20396C12.698 9.10464 10.7932 10.6393 9.44096 12.6162C8.08873 14.5932 7.34898 16.9247 7.31413 19.3196C7.27929 21.7145 7.95089 24.0666 9.24504 26.0821C10.5392 28.0975 12.3985 29.6869 14.5907 30.6518C16.783 31.6167 19.2109 31.9142 21.5712 31.5072C23.9316 31.1002 26.1197 30.0068 27.8622 28.3635C28.0971 28.1412 28.4107 28.0214 28.734 28.0304C29.0573 28.0394 29.3637 28.1765 29.5859 28.4114C29.8082 28.6464 29.9279 28.96 29.9189 29.2833C29.9099 29.6065 29.7729 29.913 29.5379 30.1352C26.8285 32.7048 23.2342 34.1335 19.5 34.1251H19.2989C16.9037 34.0923 14.5532 33.4716 12.454 32.3177C10.3548 31.1637 8.57115 29.5118 7.25989 27.5071C5.94863 25.5024 5.14987 23.2062 4.93382 20.8205C4.71776 18.4348 5.09103 16.0326 6.0208 13.8249C6.95058 11.6173 8.4084 9.67177 10.2661 8.15946C12.1239 6.64715 14.3246 5.61432 16.675 5.15174C19.0254 4.68916 21.4534 4.811 23.7457 5.50654C26.038 6.20208 28.1243 7.45004 29.8213 9.14072L34.125 13.0712V8.53134C34.125 8.20811 34.2534 7.89812 34.482 7.66956C34.7105 7.441 35.0205 7.31259 35.3438 7.31259C35.667 7.31259 35.977 7.441 36.2055 7.66956C36.4341 7.89812 36.5625 8.20811 36.5625 8.53134Z" fill="#343330"/>
</svg>