<svg xmlns="http://www.w3.org/2000/svg" width="33" height="25" viewBox="0 0 33 25" fill="none">
<path d="M31.125 0.3125H1.875C1.55177 0.3125 1.24177 0.440904 1.01321 0.669464C0.784654 0.898024 0.65625 1.20802 0.65625 1.53125V22.25C0.65625 22.8965 0.913057 23.5165 1.37018 23.9736C1.8273 24.4307 2.44728 24.6875 3.09375 24.6875H29.9062C30.5527 24.6875 31.1727 24.4307 31.6298 23.9736C32.0869 23.5165 32.3438 22.8965 32.3438 22.25V1.53125C32.3438 1.20802 32.2153 0.898024 31.9868 0.669464C31.7582 0.440904 31.4482 0.3125 31.125 0.3125ZM3.09375 10.0625H9.1875V14.9375H3.09375V10.0625ZM11.625 10.0625H29.9062V14.9375H11.625V10.0625ZM29.9062 2.75V7.625H3.09375V2.75H29.9062ZM3.09375 17.375H9.1875V22.25H3.09375V17.375ZM29.9062 22.25H11.625V17.375H29.9062V22.25Z" fill="#343330"/>
</svg>