<svg xmlns="http://www.w3.org/2000/svg" width="33" height="27" viewBox="0 0 33 27" fill="none">
<path d="M32.3438 25.6875C32.3438 26.0107 32.2153 26.3207 31.9868 26.5493C31.7582 26.7778 31.4482 26.9062 31.125 26.9062H1.875C1.55177 26.9062 1.24177 26.7778 1.01321 26.5493C0.784654 26.3207 0.65625 26.0107 0.65625 25.6875V1.3125C0.65625 0.989267 0.784654 0.679274 1.01321 0.450714C1.24177 0.222154 1.55177 0.09375 1.875 0.09375C2.19823 0.09375 2.50823 0.222154 2.73679 0.450714C2.96535 0.679274 3.09375 0.989267 3.09375 1.3125V17.8707L10.7627 10.2002C10.8759 10.0869 11.0103 9.99703 11.1583 9.93569C11.3062 9.87436 11.4648 9.84279 11.625 9.84279C11.7852 9.84279 11.9438 9.87436 12.0917 9.93569C12.2397 9.99703 12.3741 10.0869 12.4873 10.2002L16.5 14.2145L24.527 6.1875H21.375C21.0518 6.1875 20.7418 6.0591 20.5132 5.83054C20.2847 5.60198 20.1562 5.29198 20.1562 4.96875C20.1562 4.64552 20.2847 4.33552 20.5132 4.10696C20.7418 3.8784 21.0518 3.75 21.375 3.75H27.4688C27.792 3.75 28.102 3.8784 28.3305 4.10696C28.5591 4.33552 28.6875 4.64552 28.6875 4.96875V11.0625C28.6875 11.3857 28.5591 11.6957 28.3305 11.9243C28.102 12.1528 27.792 12.2812 27.4688 12.2812C27.1455 12.2812 26.8355 12.1528 26.607 11.9243C26.3784 11.6957 26.25 11.3857 26.25 11.0625V7.91051L17.3623 16.7998C17.2491 16.9131 17.1147 17.003 16.9667 17.0643C16.8188 17.1256 16.6602 17.1572 16.5 17.1572C16.3398 17.1572 16.1812 17.1256 16.0333 17.0643C15.8853 17.003 15.7509 16.9131 15.6377 16.7998L11.625 12.7855L3.09375 21.3168V24.4688H31.125C31.4482 24.4688 31.7582 24.5972 31.9868 24.8257C32.2153 25.0543 32.3438 25.3643 32.3438 25.6875Z" fill="#343330"/>
</svg>