<svg xmlns="http://www.w3.org/2000/svg" width="39" height="39" viewBox="0 0 39 39" fill="none">
  <path d="M38.5609 36.4407L29.1829 27.0646C31.901 23.8013 33.2564 19.6158 32.9671 15.3786C32.6779 11.1415 30.7662 7.17901 27.6298 4.31546C24.4933 1.45191 20.3737 -0.0922304 16.1278 0.00426478C11.8819 0.10076 7.83663 1.83046 4.83354 4.83354C1.83046 7.83663 0.10076 11.8819 0.00426478 16.1278C-0.0922304 20.3737 1.45191 24.4933 4.31546 27.6298C7.17901 30.7662 11.1415 32.6779 15.3786 32.9671C19.6158 33.2564 23.8013 31.901 27.0646 29.1829L36.4407 38.5609C36.5799 38.7001 36.7452 38.8105 36.9271 38.8859C37.109 38.9612 37.3039 39 37.5008 39C37.6977 39 37.8926 38.9612 38.0745 38.8859C38.2564 38.8105 38.4217 38.7001 38.5609 38.5609C38.7001 38.4217 38.8105 38.2564 38.8859 38.0745C38.9612 37.8926 39 37.6977 39 37.5008C39 37.3039 38.9612 37.109 38.8859 36.9271C38.8105 36.7452 38.7001 36.5799 38.5609 36.4407ZM3.03815 16.5235C3.03815 13.8564 3.82905 11.2491 5.31085 9.03145C6.79264 6.81379 8.89877 5.08534 11.3629 4.06466C13.827 3.04399 16.5385 2.77693 19.1544 3.29727C21.7703 3.8176 24.1732 5.10196 26.0591 6.98793C27.9451 8.87389 29.2295 11.2768 29.7498 13.8927C30.2701 16.5086 30.0031 19.22 28.9824 21.6842C27.9617 24.1483 26.2333 26.2544 24.0156 27.7362C21.7979 29.218 19.1907 30.0089 16.5235 30.0089C12.9482 30.0049 9.52045 28.5829 6.99231 26.0548C4.46417 23.5266 3.04212 20.0989 3.03815 16.5235Z" fill="#343330"/>
</svg>