<svg width="40" height="40" viewBox="0 0 40 40" fill="none" xmlns="http://www.w3.org/2000/svg">
<g id="Gear">
<path id="Vector" d="M20.0001 12.5001C18.5167 12.5001 17.0667 12.9399 15.8333 13.7641C14.5999 14.5882 13.6386 15.7595 13.071 17.1299C12.5033 18.5004 12.3548 20.0084 12.6442 21.4633C12.9336 22.9181 13.6479 24.2545 14.6968 25.3034C15.7457 26.3523 17.082 27.0666 18.5369 27.356C19.9918 27.6454 21.4998 27.4968 22.8702 26.9292C24.2406 26.3615 25.412 25.4002 26.2361 24.1669C27.0602 22.9335 27.5001 21.4834 27.5001 20.0001C27.498 18.0116 26.7072 16.1051 25.3011 14.6991C23.895 13.293 21.9886 12.5021 20.0001 12.5001ZM20.0001 25.0001C19.0112 25.0001 18.0445 24.7068 17.2222 24.1574C16.4 23.608 15.7591 22.8271 15.3807 21.9135C15.0022 20.9999 14.9032 19.9945 15.0961 19.0246C15.2891 18.0547 15.7653 17.1638 16.4645 16.4645C17.1638 15.7653 18.0547 15.2891 19.0246 15.0961C19.9945 14.9032 20.9999 15.0022 21.9135 15.3807C22.8271 15.7591 23.608 16.4 24.1574 17.2222C24.7068 18.0445 25.0001 19.0112 25.0001 20.0001C25.0001 21.3262 24.4733 22.5979 23.5356 23.5356C22.5979 24.4733 21.3262 25.0001 20.0001 25.0001ZM33.7501 20.3376C33.7563 20.1126 33.7563 19.8876 33.7501 19.6626L36.0813 16.7501C36.2036 16.5972 36.2882 16.4177 36.3283 16.2261C36.3685 16.0344 36.3631 15.8361 36.3126 15.6469C35.9304 14.2104 35.3587 12.8311 34.6126 11.5454C34.5149 11.3771 34.3793 11.234 34.2165 11.1274C34.0537 11.0208 33.8683 10.9537 33.6751 10.9313L29.9688 10.5188C29.8147 10.3563 29.6584 10.2001 29.5001 10.0501L29.0626 6.33445C29.0401 6.14103 28.9727 5.95554 28.8658 5.79278C28.7589 5.63001 28.6155 5.49446 28.4469 5.39695C27.1608 4.65218 25.7816 4.08106 24.3454 3.69851C24.1561 3.64819 23.9577 3.64305 23.7661 3.68348C23.5745 3.72392 23.395 3.80882 23.2423 3.93132L20.3376 6.25007C20.1126 6.25007 19.8876 6.25007 19.6626 6.25007L16.7501 3.92351C16.5972 3.80127 16.4177 3.71666 16.2261 3.6765C16.0344 3.63633 15.8361 3.64173 15.6469 3.69226C14.2106 4.07511 12.8314 4.64676 11.5454 5.39226C11.3771 5.48996 11.234 5.62558 11.1274 5.78834C11.0208 5.95109 10.9537 6.13648 10.9313 6.32976L10.5188 10.0423C10.3563 10.1975 10.2001 10.3537 10.0501 10.511L6.33445 10.9376C6.14103 10.9601 5.95554 11.0275 5.79278 11.1343C5.63001 11.2412 5.49446 11.3847 5.39695 11.5532C4.65218 12.8394 4.08106 14.2186 3.69851 15.6548C3.64819 15.844 3.64305 16.0424 3.68348 16.2341C3.72392 16.4257 3.80882 16.6051 3.93132 16.7579L6.25007 19.6626C6.25007 19.8876 6.25007 20.1126 6.25007 20.3376L3.92351 23.2501C3.80127 23.403 3.71666 23.5825 3.6765 23.7741C3.63633 23.9657 3.64173 24.1641 3.69226 24.3532C4.07443 25.7898 4.64612 27.1691 5.39226 28.4548C5.48996 28.623 5.62558 28.7661 5.78834 28.8727C5.95109 28.9793 6.13648 29.0465 6.32976 29.0688L10.036 29.4813C10.1912 29.6438 10.3475 29.8001 10.5048 29.9501L10.9376 33.6657C10.9601 33.8591 11.0275 34.0446 11.1343 34.2074C11.2412 34.3701 11.3847 34.5057 11.5532 34.6032C12.8394 35.348 14.2186 35.9191 15.6548 36.3016C15.844 36.352 16.0424 36.3571 16.2341 36.3167C16.4257 36.2762 16.6051 36.1913 16.7579 36.0688L19.6626 33.7501C19.8876 33.7563 20.1126 33.7563 20.3376 33.7501L23.2501 36.0813C23.403 36.2036 23.5825 36.2882 23.7741 36.3283C23.9657 36.3685 24.1641 36.3631 24.3532 36.3126C25.7898 35.9304 27.1691 35.3587 28.4548 34.6126C28.623 34.5149 28.7661 34.3793 28.8727 34.2165C28.9793 34.0537 29.0465 33.8683 29.0688 33.6751L29.4813 29.9688C29.6438 29.8147 29.8001 29.6584 29.9501 29.5001L33.6657 29.0626C33.8591 29.0401 34.0446 28.9727 34.2074 28.8658C34.3701 28.7589 34.5057 28.6155 34.6032 28.4469C35.348 27.1608 35.9191 25.7816 36.3016 24.3454C36.352 24.1561 36.3571 23.9577 36.3167 23.7661C36.2762 23.5745 36.1913 23.395 36.0688 23.2423L33.7501 20.3376ZM31.2344 19.3219C31.261 19.7736 31.261 20.2265 31.2344 20.6782C31.2158 20.9874 31.3127 21.2926 31.5063 21.5344L33.7235 24.3048C33.4691 25.1133 33.1433 25.8976 32.7501 26.6485L29.2188 27.0485C28.9113 27.0826 28.6274 27.2296 28.4219 27.461C28.1212 27.7993 27.8008 28.1196 27.4626 28.4204C27.2312 28.6258 27.0842 28.9097 27.0501 29.2173L26.6579 32.7454C25.9071 33.1388 25.1227 33.4646 24.3141 33.7188L21.5423 31.5016C21.3205 31.3244 21.0449 31.228 20.761 31.2282H20.686C20.2343 31.2548 19.7815 31.2548 19.3298 31.2282C19.0205 31.2096 18.7154 31.3065 18.4735 31.5001L15.6954 33.7188C14.8868 33.4644 14.1025 33.1387 13.3516 32.7454L12.9516 29.2188C12.9175 28.9113 12.7705 28.6274 12.5391 28.4219C12.2009 28.1212 11.8805 27.8008 11.5798 27.4626C11.3743 27.2312 11.0904 27.0842 10.7829 27.0501L7.25476 26.6563C6.86131 25.9055 6.53554 25.1212 6.28132 24.3126L8.49851 21.5407C8.69211 21.2988 8.789 20.9937 8.77038 20.6844C8.74382 20.2328 8.74382 19.7799 8.77038 19.3282C8.789 19.019 8.69211 18.7138 8.49851 18.4719L6.28132 15.6954C6.53574 14.8868 6.8615 14.1025 7.25476 13.3516L10.7813 12.9516C11.0888 12.9175 11.3728 12.7705 11.5782 12.5391C11.879 12.2009 12.1993 11.8805 12.5376 11.5798C12.7699 11.3742 12.9175 11.0896 12.9516 10.7813L13.3438 7.25476C14.0946 6.86131 14.879 6.53554 15.6876 6.28132L18.4594 8.49851C18.7013 8.69211 19.0065 8.789 19.3157 8.77038C19.7674 8.74382 20.2203 8.74382 20.6719 8.77038C20.9812 8.789 21.2863 8.69211 21.5282 8.49851L24.3048 6.28132C25.1133 6.53574 25.8976 6.8615 26.6485 7.25476L27.0485 10.7813C27.0826 11.0888 27.2296 11.3728 27.461 11.5782C27.7993 11.879 28.1196 12.1993 28.4204 12.5376C28.6258 12.769 28.9097 12.9159 29.2173 12.9501L32.7454 13.3423C33.1388 14.093 33.4646 14.8774 33.7188 15.686L31.5016 18.4579C31.3062 18.7018 31.2092 19.0101 31.2298 19.3219H31.2344Z" fill="#343330"/>
</g>
</svg>
